<svg width="181" height="180" viewBox="0 0 181 180" fill="none" xmlns="http://www.w3.org/2000/svg">
<ellipse opacity="0.1" cx="90.5" cy="174.6" rx="90" ry="5.4" fill="#2B2A7F"/>
<path fill-rule="evenodd" clip-rule="evenodd" d="M129.427 29.4517C130.978 27.3409 133.946 26.8869 136.057 28.4375C138.167 29.9881 138.621 32.9562 137.071 35.0669L131.295 42.9291C129.744 45.0398 126.776 45.4939 124.666 43.9433C122.555 42.3927 122.101 39.4246 123.651 37.3138L129.427 29.4517ZM133.925 31.3387C133.417 30.9653 132.702 31.0746 132.328 31.583L126.553 39.4452C126.179 39.9536 126.289 40.6685 126.797 41.042C127.305 41.4155 128.02 41.3061 128.394 40.7977L134.17 32.9356C134.543 32.4272 134.434 31.7122 133.925 31.3387ZM43.9082 76.036C43.9082 52.9807 62.5983 34.2906 85.6536 34.2906C108.709 34.2906 127.399 52.9807 127.399 76.036C127.399 99.0914 108.709 117.781 85.6536 117.781C62.5983 117.781 43.9082 99.0914 43.9082 76.036ZM85.6536 30.6906C60.6101 30.6906 40.3082 50.9924 40.3082 76.036C40.3082 101.08 60.6101 121.381 85.6536 121.381C93.8864 121.381 101.607 119.187 108.262 115.352L114.148 121.238C113.979 123.739 114.851 126.297 116.763 128.209L134.925 146.371C138.439 149.885 144.138 149.885 147.652 146.371L151.568 142.455C155.083 138.94 155.083 133.242 151.568 129.727L133.407 111.566C131.495 109.653 128.936 108.781 126.434 108.95L121.41 103.926C127.419 96.234 130.999 86.5532 130.999 76.036C130.999 50.9924 110.697 30.6906 85.6536 30.6906ZM122.532 110.139L119.075 106.683C116.773 109.192 114.192 111.441 111.382 113.381L115.336 117.335C115.72 116.673 116.196 116.049 116.763 115.482L120.679 111.566C121.246 110.999 121.87 110.523 122.532 110.139ZM106.466 70.5861C107.355 70.1415 107.715 69.0603 107.271 68.1712C106.826 67.282 105.745 66.9216 104.856 67.3662L90.7329 74.4276C90.1231 74.7325 89.7379 75.3558 89.7379 76.0376C89.7379 76.7194 90.1231 77.3426 90.7329 77.6475L104.856 84.709C105.745 85.1535 106.826 84.7931 107.271 83.904C107.715 83.0148 107.355 81.9336 106.466 81.489L95.5628 76.0376L106.466 70.5861ZM64.0348 68.1712C63.5902 69.0603 63.9506 70.1415 64.8398 70.5861L75.7427 76.0376L64.8398 81.489C63.9506 81.9336 63.5902 83.0148 64.0348 83.904C64.4794 84.7931 65.5606 85.1535 66.4497 84.709L80.5726 77.6475C81.1824 77.3426 81.5676 76.7194 81.5676 76.0376C81.5676 75.3558 81.1824 74.7325 80.5726 74.4276L66.4497 67.3662C65.5606 66.9216 64.4794 67.282 64.0348 68.1712ZM55.6768 76.0355C55.6768 59.48 69.0977 46.0592 85.6532 46.0592C102.209 46.0592 115.63 59.48 115.63 76.0355C115.63 92.591 102.209 106.012 85.6532 106.012C69.0977 106.012 55.6768 92.591 55.6768 76.0355ZM85.6532 42.4592C67.1094 42.4592 52.0768 57.4918 52.0768 76.0355C52.0768 94.5793 67.1094 109.612 85.6532 109.612C104.197 109.612 119.23 94.5793 119.23 76.0355C119.23 57.4918 104.197 42.4592 85.6532 42.4592ZM149.418 46.8856C148.621 44.3904 145.953 43.0132 143.458 43.8094L134.164 46.7751C131.669 47.5713 130.292 50.2394 131.088 52.7345C131.884 55.2297 134.552 56.6069 137.047 55.8107L146.341 52.845C148.837 52.0488 150.214 49.3807 149.418 46.8856ZM144.553 47.239C145.154 47.0472 145.796 47.379 145.988 47.98C146.18 48.581 145.848 49.2236 145.247 49.4154L135.953 52.3811C135.352 52.5729 134.709 52.2411 134.518 51.6401C134.326 51.0391 134.658 50.3965 135.259 50.2047L144.553 47.239ZM28.0301 102.825C25.5156 103.557 24.0712 106.19 24.8039 108.704C25.5366 111.219 28.169 112.663 30.6835 111.93L40.0496 109.201C42.5641 108.468 44.0085 105.836 43.2758 103.322C42.5431 100.807 39.9107 99.3626 37.3962 100.095L28.0301 102.825ZM28.2601 107.697C28.0836 107.091 28.4315 106.457 29.0372 106.281L38.4033 103.552C39.009 103.375 39.643 103.723 39.8195 104.329C39.996 104.934 39.6481 105.568 39.0425 105.745L29.6763 108.474C29.0707 108.651 28.4366 108.303 28.2601 107.697ZM37.552 127.583C35.4812 125.979 35.1025 123 36.7061 120.93L42.6792 113.216C44.2828 111.146 47.2614 110.767 49.3322 112.37C51.403 113.974 51.7817 116.953 50.1781 119.023L44.205 126.737C42.6014 128.807 39.6228 129.186 37.552 127.583ZM39.5524 123.134C39.1662 123.633 39.2574 124.35 39.7562 124.736C40.255 125.123 40.9724 125.031 41.3587 124.533L47.3318 116.819C47.718 116.32 47.6268 115.603 47.128 115.217C46.6293 114.83 45.9118 114.922 45.5255 115.42L39.5524 123.134Z" fill="#D0D5DD"/>
</svg>
