<svg width="16" height="16" viewBox="0 0 16 16" fill="none" xmlns="http://www.w3.org/2000/svg">
<path d="M8.666 0.666755C8.666 0.489944 8.73623 0.320375 8.86126 0.19535C8.98628 0.070326 9.15585 8.80828e-05 9.33266 8.80828e-05C11.1002 0.00202915 12.7947 0.705031 14.0446 1.95485C15.2944 3.20468 15.9974 4.89924 15.9993 6.66676C15.9993 6.84357 15.9291 7.01314 15.8041 7.13816C15.679 7.26318 15.5095 7.33342 15.3327 7.33342C15.1558 7.33342 14.9863 7.26318 14.8613 7.13816C14.7362 7.01314 14.666 6.84357 14.666 6.66676C14.6644 5.25276 14.102 3.89712 13.1021 2.89727C12.1023 1.89742 10.7467 1.33501 9.33266 1.33342C9.15585 1.33342 8.98628 1.26318 8.86126 1.13816C8.73623 1.01314 8.666 0.843566 8.666 0.666755V0.666755ZM9.33266 4.00009C10.0399 4.00009 10.7182 4.28104 11.2183 4.78114C11.7184 5.28123 11.9993 5.95951 11.9993 6.66676C11.9993 6.84357 12.0696 7.01314 12.1946 7.13816C12.3196 7.26318 12.4892 7.33342 12.666 7.33342C12.8428 7.33342 13.0124 7.26318 13.1374 7.13816C13.2624 7.01314 13.3327 6.84357 13.3327 6.66676C13.3316 5.60621 12.9098 4.58941 12.1599 3.8395C11.41 3.08958 10.3932 2.66781 9.33266 2.66676C9.15585 2.66676 8.98628 2.73699 8.86126 2.86202C8.73623 2.98704 8.666 3.15661 8.666 3.33342C8.666 3.51023 8.73623 3.6798 8.86126 3.80483C8.98628 3.92985 9.15585 4.00009 9.33266 4.00009V4.00009ZM15.3947 11.1594C15.781 11.5468 15.9979 12.0716 15.9979 12.6188C15.9979 13.1659 15.781 13.6907 15.3947 14.0781L14.788 14.7774C9.328 20.0048 -3.95866 6.72142 1.188 1.24409L1.95467 0.577421C2.34252 0.201873 2.86262 -0.0058792 3.40247 -0.000888689C3.94232 0.00410182 4.4585 0.221434 4.83933 0.604088C4.86 0.624755 6.09533 2.22942 6.09533 2.22942C6.46189 2.61451 6.66593 3.12604 6.66507 3.65769C6.6642 4.18934 6.45848 4.7002 6.09067 5.08409L5.31867 6.05476C5.7459 7.09283 6.37404 8.03625 7.167 8.83082C7.95997 9.62538 8.90212 10.2554 9.93933 10.6848L10.916 9.90809C11.2999 9.54057 11.8107 9.33509 12.3422 9.33434C12.8737 9.3336 13.385 9.53764 13.77 9.90409C13.77 9.90409 15.374 11.1388 15.3947 11.1594ZM14.4773 12.1288C14.4773 12.1288 12.882 10.9014 12.8613 10.8808C12.724 10.7446 12.5384 10.6682 12.345 10.6682C12.1516 10.6682 11.966 10.7446 11.8287 10.8808C11.8107 10.8994 10.466 11.9708 10.466 11.9708C10.3754 12.0429 10.2675 12.0902 10.1531 12.1079C10.0386 12.1257 9.92155 12.1133 9.81333 12.0721C8.46964 11.5718 7.24916 10.7886 6.23456 9.77548C5.21996 8.76237 4.43494 7.54304 3.93267 6.20009C3.88813 6.09039 3.87361 5.97081 3.8906 5.85365C3.90759 5.73648 3.95548 5.62595 4.02933 5.53342C4.02933 5.53342 5.10067 4.18809 5.11867 4.17076C5.25485 4.03341 5.33125 3.84783 5.33125 3.65442C5.33125 3.46101 5.25485 3.27543 5.11867 3.13809C5.098 3.11809 3.87067 1.52142 3.87067 1.52142C3.73127 1.39643 3.54934 1.32949 3.36217 1.33432C3.175 1.33915 2.99676 1.4154 2.864 1.54742L2.09734 2.21409C-1.66399 6.73676 9.84999 17.6121 13.8133 13.8668L14.4207 13.1668C14.563 13.0349 14.6485 12.8529 14.659 12.6592C14.6696 12.4655 14.6044 12.2753 14.4773 12.1288V12.1288Z" fill="white"/>
</svg>
